HIERARCHY
ROOT SpineBase
{
  OFFSET 0.000000 0.000000 0.000000
  CHANNELS 6 Xposition Yposition Zposition Zrotation Xrotation Yrotation
  JOINT SpineMid
  {
    OFFSET 0.000000 32.025407 0.000000
    CHANNELS 3 Zrotation Xrotation Yrotation
    JOINT SpineShoulder
    {
      OFFSET 0.131518 23.698015 -0.845319
      CHANNELS 3 Zrotation Xrotation Yrotation
      JOINT Neck
      {
        OFFSET 0.113147 7.821605 -0.612582
        CHANNELS 3 Zrotation Xrotation Yrotation
        JOINT Head
        {
          OFFSET -5.970129 14.151950 -1.425043
          CHANNELS 3 Zrotation Xrotation Yrotation
          End Site
          {
            OFFSET 0 0 0
          }
        }
      }
      JOINT ShoulderLeft
      {
        OFFSET -16.794153 -6.096629 6.813455
        CHANNELS 3 Zrotation Xrotation Yrotation
        JOINT ElbowLeft
        {
          OFFSET -0.888112 -26.514412 2.606717
          CHANNELS 3 Zrotation Xrotation Yrotation
          JOINT WristLeft
          {
            OFFSET 4.681111 -18.506338 -12.161109
            CHANNELS 3 Zrotation Xrotation Yrotation
            JOINT HandLeft
            {
              OFFSET 2.635191 -3.815243 -1.600124
              CHANNELS 3 Zrotation Xrotation Yrotation
              JOINT HandTipLeft
              {
                OFFSET 2.902293 -5.799094 -1.316715
                CHANNELS 3 Zrotation Xrotation Yrotation
                End Site
                {
                  OFFSET 0 0 0
                }
              }
              JOINT ThumbLeft
              {
                OFFSET 1.825556 -4.202616 2.346701
                CHANNELS 3 Zrotation Xrotation Yrotation
                End Site
                {
                  OFFSET 0 0 0
                }
              }
            }
          }
        }
      }
      JOINT ShoulderRight
      {
        OFFSET 15.429361 -3.069139 -7.501985
        CHANNELS 3 Zrotation Xrotation Yrotation
        JOINT ElbowRight
        {
          OFFSET 7.949244 -25.531338 -2.250017
          CHANNELS 3 Zrotation Xrotation Yrotation
          JOINT WristRight
          {
            OFFSET -2.110348 -24.750420 -4.846928
            CHANNELS 3 Zrotation Xrotation Yrotation
            JOINT HandRight
            {
              OFFSET -3.392338 -7.817947 -1.237944
              CHANNELS 3 Zrotation Xrotation Yrotation
              JOINT HandTipRight
              {
                OFFSET -1.561474 -7.430008 -1.388575
                CHANNELS 3 Zrotation Xrotation Yrotation
                End Site
                {
                  OFFSET 0 0 0
                }
              }
              JOINT ThumbRight
              {
                OFFSET -2.831021 2.659739 -2.749198
                CHANNELS 3 Zrotation Xrotation Yrotation
                End Site
                {
                  OFFSET 0 0 0
                }
              }
            }
          }
        }
      }
    }
  }
  JOINT HipLeft
  {
    OFFSET -6.190307 0.103974 -1.267389
    CHANNELS 3 Zrotation Xrotation Yrotation
    JOINT KneeLeft
    {
      OFFSET 3.094653 -35.615536 6.330591
      CHANNELS 3 Zrotation Xrotation Yrotation
      JOINT AnkleLeft
      {
        OFFSET 4.638078 -34.830686 9.814045
        CHANNELS 3 Zrotation Xrotation Yrotation
        JOINT FootLeft
        {
          OFFSET 0.033650 -8.372839 -4.964364
          CHANNELS 3 Zrotation Xrotation Yrotation
          End Site
          {
            OFFSET 0 0 0
          }
        }
      }
    }
  }
  JOINT HipRight
  {
    OFFSET 7.659849 1.746318 -6.007582
    CHANNELS 3 Zrotation Xrotation Yrotation
    JOINT KneeRight
    {
      OFFSET 9.589234 -33.327985 0.949305
      CHANNELS 3 Zrotation Xrotation Yrotation
      JOINT AnkleRight
      {
        OFFSET 4.060053 -37.708363 9.304109
        CHANNELS 3 Zrotation Xrotation Yrotation
        JOINT FootRight
        {
          OFFSET -1.744688 -7.897709 -5.024216
          CHANNELS 3 Zrotation Xrotation Yrotation
          End Site
          {
            OFFSET 0 0 0
          }
        }
      }
    }
  }
}
MOTION
Frames: 6
Frame Time: 0.033333
-61.700114 80.008129 303.591314 -0.000000 0.000000 18.893426 -0.000000 0.000000 -18.893426 -0.000000 0.000000 0.000000 -0.000000 0.000000 0.000000 0.000000 0.000000 0.000000 -0.000000 0.000000 0.000000 -0.000000 0.000000 0.000000 -0.000000 0.000000 0.000000 -0.000000 0.000000 0.000000 0.000000 0.000000 0.000000 0.000000 0.000000 0.000000 -0.000000 0.000000 0.000000 -0.000000 0.000000 0.000000 -0.000000 0.000000 0.000000 -0.000000 0.000000 0.000000 0.000000 0.000000 0.000000 0.000000 0.000000 0.000000 -0.000000 0.000000 -18.893426 -0.000000 0.000000 0.000000 -0.000000 0.000000 0.000000 0.000000 0.000000 0.000000 -0.000000 0.000000 -18.893426 -0.000000 0.000000 0.000000 -0.000000 0.000000 0.000000 0.000000 0.000000 0.000000
-61.565230 80.036977 303.664850 0.182133 -0.107805 18.561769 -0.138342 0.160175 -18.561404 -0.000000 0.000000 0.000000 -0.000000 0.000000 0.000000 0.000000 0.000000 0.000000 0.374881 1.695895 -0.025541 -3.083793 8.138039 4.228994 1.403207 -7.554502 -2.008209 -0.738439 2.450740 0.812921 0.000000 0.000000 0.000000 0.000000 0.000000 0.000000 1.906513 -2.269494 -0.834090 -9.452269 10.649226 2.438646 -3.691057 -0.681841 -2.605863 4.469101 2.803672 1.047925 0.000000 0.000000 0.000000 0.000000 0.000000 0.000000 -0.138342 0.160175 -18.561404 -0.000000 0.000000 0.000000 -0.000000 0.000000 0.000000 0.000000 0.000000 0.000000 -0.138342 0.160175 -18.561404 -0.000000 0.000000 0.000000 -3.082759 10.377074 -0.053670 0.000000 0.000000 0.000000
-61.437813 80.078574 303.736075 0.350584 -0.214013 18.357366 -0.265345 0.313533 -18.355985 -0.000000 0.000000 0.000000 -0.000000 0.000000 0.000000 0.000000 0.000000 0.000000 0.547897 3.039218 -0.062666 -6.676440 16.545718 8.919565 1.501913 -11.715750 -1.266909 -0.842960 6.608562 1.620213 0.000000 0.000000 0.000000 0.000000 0.000000 0.000000 3.584209 -3.752891 -1.358024 -20.014307 20.103731 6.456074 -6.167745 -1.241672 -5.788118 7.544724 5.544062 2.992370 0.000000 0.000000 0.000000 0.000000 0.000000 0.000000 -0.265345 0.313533 -18.355985 -0.000000 0.000000 0.000000 0.809663 -0.509324 -0.479764 0.000000 0.000000 0.000000 -0.265345 0.313533 -18.355985 -0.000000 0.000000 0.000000 -5.200194 17.718101 0.158587 0.000000 0.000000 0.000000
-61.317866 80.132920 303.804988 0.505513 -0.318743 18.281667 -0.380025 0.461218 -18.278732 -0.000000 0.000000 0.000000 -0.000000 0.000000 0.000000 0.000000 0.000000 0.000000 0.535007 4.096542 -0.104192 -10.838524 24.802110 14.186797 -60.520175 32.209633 84.684921 -14.996653 -61.371552 -65.666584 0.000000 0.000000 0.000000 0.000000 0.000000 0.000000 5.038313 -4.388712 -1.601590 -31.787117 27.887322 11.926832 -7.204138 -1.733032 -9.193783 8.911267 7.736364 5.531908 0.000000 0.000000 0.000000 0.000000 0.000000 0.000000 -0.380025 0.461218 -18.278732 -0.000000 0.000000 0.000000 0.849485 -0.325640 -0.503405 0.000000 0.000000 0.000000 -1.037601 0.974650 -18.211790 0.785078 -0.282145 -0.056769 -6.450867 22.454770 0.320546 0.000000 0.000000 0.000000
-61.205387 80.200015 303.871589 0.647052 -0.422113 18.335961 -0.481437 0.604214 -18.331039 -0.000000 0.000000 0.000000 0.875881 -0.308785 -0.039566 0.000000 0.000000 0.000000 0.337555 4.911449 -0.146535 -15.668207 32.625619 20.191980 -91.497370 21.798762 131.401195 -65.483310 -63.875089 -119.362557 0.000000 0.000000 0.000000 0.000000 0.000000 0.000000 6.265287 -4.124297 -1.589399 -44.586064 33.728796 18.479293 -6.911662 -2.119895 -12.513862 8.594376 8.899486 8.298854 0.000000 0.000000 0.000000 0.000000 0.000000 0.000000 -1.200063 1.343484 -18.440207 0.915544 -0.473904 0.125169 -0.000000 0.000000 0.000000 0.000000 0.000000 0.000000 -1.324314 1.213633 -18.255539 0.991304 -0.314600 -0.059407 -6.908117 25.073917 0.267420 0.000000 0.000000 0.000000
-61.100376 80.279858 303.935878 0.775301 -0.524238 18.521376 -0.568668 0.743327 -18.514140 -0.000000 0.000000 0.000000 1.131109 -0.590952 -0.128962 0.000000 0.000000 0.000000 -0.057310 5.509629 -0.188455 -21.352150 39.869309 27.192937 -127.752712 -8.867181 68.643837 126.448680 -34.532635 57.053193 0.000000 0.000000 0.000000 0.000000 0.000000 0.000000 7.249487 -2.908733 -1.337812 -57.944791 37.648865 25.481117 -5.546981 -2.260862 -15.527977 6.717935 8.602696 10.861899 0.000000 0.000000 0.000000 0.000000 0.000000 0.000000 -1.427966 1.718410 -18.639121 1.125840 -0.649123 0.149818 0.200222 0.911803 -0.116095 0.000000 0.000000 0.000000 -1.577703 1.413459 -18.437570 1.169078 -0.316428 -0.054351 -6.618964 25.888836 -0.069020 0.000000 0.000000 0.000000
